# xmcd CD Database Entry
#
# Track frame offsets:
# 150
# 20931
# 41553
# 63521
# 86080
# 98164
# 117166
# 127659
# 145989
# 163160
# 182180
#
# Disc length: 2662 seconds
#
# Revision: 1
# Processed by: cddbd v1.4b41PL1 Copyright (c) Steve Scherf et al.
# Submitted via: tcd 2.0b
#
DISCID=990a640b
DTITLE=Sade - Lovers Rock
DYEAR=1900
DGENRE=
TTITLE0=By Your Side
TTITLE1=Flow
TTITLE2=King of Sorrow
TTITLE3=Somebody Already Broke My Heart
TTITLE4=All About Our Love
TTITLE5=Slave Song
TTITLE6=The Sweetest Gift
TTITLE7=Every Word
TTITLE8=Immigrant
TTITLE9=Lovers Rock
TTITLE10=It's Only Love That Gets You Trough
EXTD=
EXTT0=
EXTT1=
EXTT2=
EXTT3=
EXTT4=
EXTT5=
EXTT6=
EXTT7=
EXTT8=
EXTT9=
EXTT10=
PLAYORDER=
